# xmcd
#
# Track frame offsets:
#	180
#	9630
#	28346
#	37733
#	51892
#	64613
#	104751
#	113967
#	129215
#	143211
#	154233
#	163289
#	175775
#	185090
#	200903
#	226751
#	241718
#	251748
#	266063
#
# Disc length: 3868 seconds
#
# Revision: 2
# Processed by: cddbd v1.5.2PL0 Copyright (c) Steve Scherf et al.
# Submitted via: audiograbber 1.83.01
#
DISCID=110f1a13
DTITLE=Wolfgang Kremer and Manfred Paul Galden - Jubilee-10 Years Together On Sta
DTITLE=ge
DYEAR=1993
DGENRE=Blues
TTITLE0=Black Woman
TTITLE1=The Ultimate Man
TTITLE2=All Around Man
TTITLE3=That's How Strong My Love Is
TTITLE4=Forty-Four Blues
TTITLE5=Ramblin',Gamblin' Willie
TTITLE6=Country Jam and Boogie Roll
TTITLE7=Highway 61 Blues
TTITLE8=Freight Train Blues
TTITLE9=I Can't Be Satisfied
TTITLE10=Don't Waste My Time
TTITLE11=Jody
TTITLE12=Mama Don't Allow It
TTITLE13=Poor Boy Blues
TTITLE14=The Valley
TTITLE15=San Francisco Bay Blues
TTITLE16=John The Revelator
TTITLE17=Dreamin' Green
TTITLE18=Hard Times From New York Town
EXTD=
EXTT0=
EXTT1=
EXTT2=
EXTT3=
EXTT4=
EXTT5=
EXTT6=
EXTT7=
EXTT8=
EXTT9=
EXTT10=
EXTT11=
EXTT12=
EXTT13=
EXTT14=
EXTT15=
EXTT16=
EXTT17=
EXTT18=
PLAYORDER=
